<mxfile host="app.diagrams.net" modified="2023-09-20T06:25:50.552Z" agent="Mozilla/5.0 (Macintosh; Intel Mac OS X 10_15_7) AppleWebKit/537.36 (KHTML, like Gecko) Chrome/117.0.0.0 Safari/537.36" version="21.7.5" etag="r9YOr9aUVFadujOW_baC" type="github">
  <diagram name="第 1 页" id="lE5Fm-t2uKWcYY-g1TFq">
    <mxGraphModel>
      <root>
        <mxCell id="0" />
        <mxCell id="1" parent="0" />
      </root>
    </mxGraphModel>
  </diagram>
</mxfile>
